<svg xmlns="http://www.w3.org/2000/svg" viewBox="0 0 540 518" width="45" height="45">
  <g id="Layer">
    <path id="svg_5" class="shp0" fill="#b2ff59"
          d="M2.26 172.52L269.76 3.69L537.26 172.52L435.09 445.69L267.76 514.69L104.44 449.69L53.35 309.1L2.26 172.52L2.26 172.52Z"/>
    <path id="QP " fill="#616161"
          d="M239.4 178.4Q227.98 178.4 221.23 184.76Q214.53 191.12 214.53 202.1Q214.53 213.04 221.23 219.4Q227.98 225.76 239.4 225.76Q250.82 225.76 257.47 219.4Q264.17 213.04 264.17 202.1Q264.17 191.12 257.47 184.76Q250.82 178.4 239.4 178.4ZM254.09 229.95L267.91 241.24L255.24 241.24L243.76 231.97Q242.05 232.05 241.11 232.09Q240.23 232.12 239.4 232.12Q223.05 232.12 213.23 223.98Q203.47 215.79 203.47 202.1Q203.47 188.37 213.23 180.22Q223.05 172.04 239.4 172.04Q255.7 172.04 265.47 180.22Q275.23 188.37 275.23 202.1Q275.23 212.19 269.77 219.36Q264.37 226.54 254.09 229.95ZM315.31 179.53L302.12 179.53L302.12 201.29L315.31 201.29Q322.63 201.29 326.63 198.46Q330.63 195.62 330.63 190.39Q330.63 185.19 326.63 182.36Q322.63 179.53 315.31 179.53ZM291.63 231L291.63 173.09L315.31 173.09Q328.34 173.09 334.99 177.51Q341.69 181.89 341.69 190.39Q341.69 198.96 334.99 203.34Q328.34 207.73 315.31 207.73L302.12 207.73L302.12 231L291.63 231Z"/>
    <path id="&lt;ui&gt; " fill="#616161"
          d="M229.94 308.39L229.94 316.43L192.82 332.66L229.94 348.8L229.94 356.84L183.83 336.28L183.83 328.94L229.94 308.39ZM244 341.46L244 311.48L250.61 311.48L250.61 341.15Q250.61 348.18 252.84 351.72Q255.07 355.21 259.53 355.21Q264.89 355.21 267.98 351.01Q271.11 346.81 271.11 339.56L271.11 311.48L277.73 311.48L277.73 361L271.11 361L271.11 353.4Q268.7 357.91 265.5 360.12Q262.34 362.28 258.13 362.28Q251.19 362.28 247.59 356.98Q244 351.67 244 341.46ZM260.65 310.29L260.65 310.29ZM291.36 361L291.36 311.48L297.98 311.48L297.98 361L291.36 361ZM291.36 302.51L291.36 292.2L297.98 292.2L297.98 302.51L291.36 302.51ZM349.73 332.66L312.69 316.43L312.69 308.39L358.79 328.94L358.79 336.28L312.69 356.84L312.69 348.8L349.73 332.66Z"/>
    <path id="svg_9" class="shp1" d="M214.5 266.65L320.5 266.65"/>
    <path id="svg_10" fill="#616161" class="shp2"
          d="M269.89 118.32C284.5 118.34 298.46 121.07 311.68 125.62L301.22 145.13L375.48 145.13L356.91 110.46L338.35 75.79L328.59 94.06C310.28 86.84 290.54 82.81 269.91 82.81C174.91 82.81 97.92 165.82 97.92 268.24C97.92 310.74 111.33 349.8 133.64 381.09L159.79 359.44C141.75 334.15 130.89 302.6 130.84 268.25C130.97 185.45 193.1 118.45 269.89 118.32L269.89 118.32L269.89 118.32ZM406.17 155.43L380.02 177.09C398.07 202.36 408.92 233.9 408.97 268.26C408.84 351.06 346.7 418.05 269.91 418.19C256.3 418.17 243.28 415.78 230.87 411.79L240.71 393.44L166.45 393.44L185.01 428.09L203.58 462.79L213.93 443.42C231.49 450.01 250.28 453.69 269.91 453.7C364.91 453.68 441.9 370.66 441.92 268.25C441.9 225.74 428.48 186.7 406.17 155.43L406.17 155.43L406.17 155.43Z"/>
  </g>
</svg>
